{"title":"Cavale aka On the Run (2002)- Belvaux's trilogy","uid":9505865,"size":733855433,"categoryP":"video","categoryS":"movies","magnet":"?xt=urn:btih:c5f9c3c73508131751d4fcc208ad68f27cd99b00&amp;dn=Cavale+aka+On+the+Run+%282002%29-+Belvaux%27s+trilogy&amp;tr=udp%3A%2F%2Ftracker.openbittorrent.com%3A80&amp;tr=udp%3A%2F%2Fopen.demonii.com%3A1337&amp;tr=udp%3A%2F%2Ftracker.coppersurfer.tk%3A6969&amp;tr=udp%3A%2F%2Fexodus.desync.com%3A6969","seeders":2,"leechers":0,"uploader":"Aaaameida","files":-1,"time":1390316655,"description":"After nearly fifteen years behind bars, lefty revolutionary Bruno escapes and heads back to Grenoble, France. His plan? Settle some old scores, hook up with his foxy ex-lover, and avoid the cop on his tail. An unexpected event, however, brings cop and crook closer than they ever could have expected.\n\nLanguage: French\nSubtitles: English, Spanish and Portuguese\n &lt;a href=&quot;\nhttp://www.imdb.com/title/tt0233418&quot; rel=&quot;nofollow&quot; target=&quot;_NEW&quot;&gt;\nhttp://www.imdb.com/title/tt0233418&lt;/a&gt;\n\n      Format : AVI\n      Format/Info : Audio Video Interleave\n      File size : 700 MiB\n      Duration : 1h 49mn\n      Overall bit rate : 896 Kbps\n      Writing application : FairUse Wizard - http://fairusewizard.com\n      Writing library : The best and REALLY easy backup tool\n   Video #0\n      ID : 0\n      Format : MPEG-4 Visual\n      Format profile : AdvancedSimple@L5\n      Format settings, BVOP : Yes\n      Format settings, QPel : No\n      Format settings, GMC : No warppoints\n      Format settings, Matrix : Default (MPEG)\n      Muxing mode : Packed bitstream\n      Codec ID : XVID\n      Codec ID/Hint : XviD\n      Duration : 1h 49mn\n      Bit rate : 759 Kbps\n      Width : 544 pixels\n      Height : 320 pixels\n      Display aspect ratio : 16:9\n      Frame rate : 25.000 fps\n      Resolution : 24 bits\n      Colorimetry : 4:2:0\n      Scan type : Progressive\n      Bits/(Pixel*Frame) : 0.174\n      Stream size : 592 MiB (85%)\n      Writing library : XviD 1.2.0.dev47 (UTC 2006-11-01)\n   Audio #1\n      ID : 1\n      Format : MPEG Audio\n      Format version : Version 1\n      Format profile : Layer 3\n      Codec ID : 55\n      Codec ID/Hint : MP3\n      Duration : 1h 49mn\n      Bit rate mode : Constant\n      Bit rate : 128 Kbps\n      Channel(s) : 2 channels\n      Sampling rate : 48.0 KHz\n      Resolution : 16 bits\n      Stream size : 99.9 MiB (14%)\n      Alignment : Aligned on interleaves\n      Interleave, duration : 40 ms (1.00 video frame)\n      Interleave, preload duration : 504 ms\n      Writing library : LAME3.97b\n      Encoding settings : -m j -V 4 -q 2 -lowpass 17 -b 128","torrent":{"xt":"urn:btih:c5f9c3c73508131751d4fcc208ad68f27cd99b00","amp;dn":"Cavale+aka+On+the+Run+%282002%29-+Belvaux%27s+trilogy","amp;tr":["udp%3A%2F%2Ftracker.openbittorrent.com%3A80","udp%3A%2F%2Fopen.demonii.com%3A1337","udp%3A%2F%2Ftracker.coppersurfer.tk%3A6969","udp%3A%2F%2Fexodus.desync.com%3A6969"],"infoHash":"c5f9c3c73508131751d4fcc208ad68f27cd99b00","infoHashBuffer":{"type":"Buffer","data":[197,249,195,199,53,8,19,23,81,212,252,194,8,173,104,242,124,217,155,0]},"announce":[],"urlList":[]}}